<svg xmlns="http://www.w3.org/2000/svg" width="19.232" height="15.62" viewBox="0 0 19.232 15.62">
  <path id="Shape" d="M17.256,3.893c.012.171.012.342.012.514A11.138,11.138,0,0,1,6.054,15.62,11.146,11.146,0,0,1,0,13.851a8.264,8.264,0,0,0,.953.048,7.9,7.9,0,0,0,4.893-1.683A3.947,3.947,0,0,1,2.161,9.48a5,5,0,0,0,.742.061,4.194,4.194,0,0,0,1.039-.133A3.943,3.943,0,0,1,.781,5.54V5.491a3.989,3.989,0,0,0,1.782.5A3.947,3.947,0,0,1,1.343.72,11.2,11.2,0,0,0,9.47,4.844a4.372,4.372,0,0,1-.1-.9,3.946,3.946,0,0,1,6.822-2.7,7.776,7.776,0,0,0,2.5-.951,3.923,3.923,0,0,1-1.733,2.171,7.872,7.872,0,0,0,2.271-.61,8.5,8.5,0,0,1-1.976,2.039Z" fill="#c5d5e6"/>
</svg>
