<svg xmlns="http://www.w3.org/2000/svg" width="28.043" height="16" viewBox="0 0 28.043 16">
  <path id="Shape" d="M27.895,14.45a1.92,1.92,0,0,0-.1-.183,14.534,14.534,0,0,0-2.789-3.227l-.029-.029L24.967,11l-.015-.015h-.015q-.934-.891-1.183-1.2a1.124,1.124,0,0,1-.2-1.183,11.025,11.025,0,0,1,1.314-1.913q.6-.774.949-1.241Q28.34,2.09,28,1.155l-.087-.146a.854.854,0,0,0-.452-.241A2.3,2.3,0,0,0,26.53.732l-4.2.029a.546.546,0,0,0-.292.007l-.19.044L21.77.849l-.058.044a.649.649,0,0,0-.161.153,1,1,0,0,0-.146.255,23.842,23.842,0,0,1-1.562,3.285q-.54.905-.993,1.57a7.553,7.553,0,0,1-.759.978,5.3,5.3,0,0,1-.555.5q-.248.19-.379.161c-.088-.02-.17-.039-.248-.058a.971.971,0,0,1-.328-.358,1.6,1.6,0,0,1-.168-.57q-.044-.343-.051-.591t.007-.7q.015-.453.015-.613,0-.555.022-1.2t.037-1.029q.015-.38.015-.8a3.374,3.374,0,0,0-.051-.664,2.273,2.273,0,0,0-.153-.467.787.787,0,0,0-.3-.35,1.687,1.687,0,0,0-.489-.2A9.716,9.716,0,0,0,13.491,0,9.579,9.579,0,0,0,10,.353a1.967,1.967,0,0,0-.555.438q-.263.321-.073.35a1.79,1.79,0,0,1,1.241.628l.088.175a2.793,2.793,0,0,1,.2.672,6.776,6.776,0,0,1,.131,1.066,11.365,11.365,0,0,1,0,1.825q-.073.759-.139,1.183a2.368,2.368,0,0,1-.2.686,2.9,2.9,0,0,1-.175.321.251.251,0,0,1-.073.073,1.094,1.094,0,0,1-.394.073.925.925,0,0,1-.5-.2,3.5,3.5,0,0,1-.606-.562,7.515,7.515,0,0,1-.708-1q-.394-.642-.818-1.518L7.2,4.134q-.219-.409-.6-1.19T5.928,1.433a.962.962,0,0,0-.35-.467L5.5.921A1,1,0,0,0,5.271.8,1.55,1.55,0,0,0,4.935.7l-4,.029A1.017,1.017,0,0,0,.1,1.009L.044,1.1A.472.472,0,0,0,0,1.33a1.162,1.162,0,0,0,.088.394Q.964,3.783,1.993,5.7T3.782,8.777q.759,1.168,1.548,2.2T6.373,12.31q.256.292.4.438l.365.35a8.662,8.662,0,0,0,1.029.84,17.559,17.559,0,0,0,1.5.964,8.159,8.159,0,0,0,1.92.774,6.639,6.639,0,0,0,2.132.241H15.4a1.163,1.163,0,0,0,.774-.321l.058-.073a.968.968,0,0,0,.109-.27,1.483,1.483,0,0,0,.051-.4,4.811,4.811,0,0,1,.095-1.131,2.975,2.975,0,0,1,.248-.759,1.866,1.866,0,0,1,.314-.431,1.269,1.269,0,0,1,.249-.212.953.953,0,0,1,.116-.051.927.927,0,0,1,.825.227,4.846,4.846,0,0,1,.891.847q.416.5,1,1.131a6.872,6.872,0,0,0,1.022.935l.292.175a3.555,3.555,0,0,0,.76.321,1.637,1.637,0,0,0,.817.073l3.738-.058a1.694,1.694,0,0,0,.861-.183.724.724,0,0,0,.365-.4,1.131,1.131,0,0,0,.007-.5A1.833,1.833,0,0,0,27.895,14.45Z" transform="translate(0)" fill="#c5d5e6"/>
</svg>
