<svg xmlns="http://www.w3.org/2000/svg" width="40" height="32.977" viewBox="0 0 40 32.977">
  <path id="Shape" d="M35.392,32.977H3.647A3.637,3.637,0,0,1,0,29.358V3.619H.033A3.638,3.638,0,0,1,3.68,0H40V29.083H35.392v3.893ZM2.353,6.807V29.355a1.282,1.282,0,0,0,1.294,1.266h29.4v-7.06H26.315a3.61,3.61,0,0,1-3.677-3.529V17.68a3.61,3.61,0,0,1,3.677-3.529h6.727V7.009H3.647a.085.085,0,0,1-.022,0A.086.086,0,0,0,3.6,7a3.966,3.966,0,0,1-1.066-.166.467.467,0,0,0-.092-.014A.478.478,0,0,1,2.353,6.807Zm33.04,16.755v3.165h2.255V23.562ZM26.313,16.5a1.259,1.259,0,0,0-1.325,1.176v2.353a1.259,1.259,0,0,0,1.325,1.176H37.647V16.5ZM3.68,2.353A1.285,1.285,0,0,0,2.386,3.619c0,.717.65,1.038,1.294,1.038H35.392v9.494h2.255V2.353Z" fill="#c5d5e6"/>
</svg>
