<svg xmlns="http://www.w3.org/2000/svg" width="39.801" height="55.06" viewBox="0 0 39.801 55.06">
  <g id="clothes" transform="translate(-0.121)">
    <g id="Group">
      <path id="Shape" d="M16.034,30.595H9.125a.971.971,0,0,1-.97-.97V14.192l-2.09,1.045a.971.971,0,0,1-1.228-.309l-4.66-6.6A.977.977,0,0,1,.349,7.021L8.5.23A.97.97,0,0,1,9.125,0H30.678A.974.974,0,0,1,31.3.229l8.151,6.792a.976.976,0,0,1,.171,1.306l-4.659,6.6a.971.971,0,0,1-1.228.309l-2.09-1.045v2.617a.971.971,0,1,1-1.941,0V1.941H26.04a6.223,6.223,0,0,1-2.084,3.734,6.2,6.2,0,0,1-8.108,0,6.22,6.22,0,0,1-2.083-3.734H10.1V28.653h5.938a.971.971,0,1,1,0,1.941ZM31.649,3.045v8.977l2.211,1.105,3.662-5.188Zm-23.5,0L2.281,7.939l3.662,5.188,2.211-1.105V3.045Zm7.589-1.1a4.271,4.271,0,0,0,8.319,0Z" transform="translate(0.12)" fill="#c5d5e6"/>
      <path id="Shape-2" data-name="Shape" d="M20.491,36.152H13.015a.972.972,0,0,1-.969-.917L10.731,11.578,9.416,35.235a.97.97,0,0,1-.969.917H.971A.972.972,0,0,1,0,35.181V.971A.972.972,0,0,1,.971,0h19.52a.972.972,0,0,1,.971.971v34.21A.972.972,0,0,1,20.491,36.152ZM9.817,9.553h1.828a.972.972,0,0,1,.969.917l1.319,23.74h5.587V6.056H1.942V34.21H7.529L8.848,10.47A.972.972,0,0,1,9.817,9.553Zm6.642-7.611V4.115H19.52V1.941Zm-9.514,0V4.115h7.572V1.941Zm-5,0V4.115H5V1.941Z" transform="translate(18.304 18.908)" fill="#c5d5e6"/>
    </g>
  </g>
</svg>
