<svg xmlns="http://www.w3.org/2000/svg" width="32.384" height="40" viewBox="0 0 32.384 40">
  <path id="Shape" d="M32.336,12.753l-2.8,18.974a4.339,4.339,0,0,1-1.379,2.532c-.449.447-.748.744-.748,2.2v2.369a1.176,1.176,0,1,1-2.353,0V36.454a4.6,4.6,0,0,1,1.445-3.864,2.005,2.005,0,0,0,.715-1.256l2.788-18.915c.042-.289.12-1.271-.642-1.376a.828.828,0,0,0-.647.134,1.329,1.329,0,0,0-.442.889l-1.169,7.8a1.175,1.175,0,0,1-1.835.791.875.875,0,0,1-.513-.184,1.171,1.171,0,0,1-.539-1.054l.671-12.438a1.133,1.133,0,0,0-1.016-1.252,1.113,1.113,0,0,0-1.207,1.012L21.578,18a1.154,1.154,0,0,1-1.249,1.061c-.191-.012-.384-.024-.579-.026A1.179,1.179,0,0,1,18.6,17.875l-.271-14.4a1.1,1.1,0,1,0-2.2-.024l-.278,15.5a1.177,1.177,0,0,1-.673,1.042c-.146.071-.287.141-.421.216a1.162,1.162,0,0,1-1.12.019A1.184,1.184,0,0,1,13,19.3L11.79,6.76a1.11,1.11,0,0,0-.391-.767,1.158,1.158,0,0,0-.812-.256,1.108,1.108,0,0,0-1.007,1.2l1.184,16.7a1.176,1.176,0,0,1-2.094.814l-3.649-4.6a1.442,1.442,0,0,0-1.976-.645,1.368,1.368,0,0,0-.642.838,1.35,1.35,0,0,0,.141,1.042l8.3,14.322a1.357,1.357,0,0,0,.864.645,1.176,1.176,0,0,1,.9,1.144v1.624a1.176,1.176,0,1,1-2.353,0V38a3.689,3.689,0,0,1-1.445-1.407L.505,22.271a3.73,3.73,0,0,1,1.362-5.1,3.73,3.73,0,0,1,5.092,1.362L8.15,20.026l-.915-12.9a3.463,3.463,0,0,1,6.5-1.918l.033-1.772a3.454,3.454,0,0,1,6.908.021l.033,1.755a3.518,3.518,0,0,1,.831-1.021,3.472,3.472,0,0,1,5.692,2.96l-.125,2.3c.061-.054.127-.106.191-.155a3.173,3.173,0,0,1,2.4-.584c1.847.256,2.936,1.92,2.64,4.04Z" fill="#c5d5e6"/>
</svg>
