<svg id="Финансово" xmlns="http://www.w3.org/2000/svg" width="30" height="30" viewBox="0 0 30 30">
  <path id="Rectangle_12_Copy_3" data-name="Rectangle 12 Copy 3" d="M5,0H25a5,5,0,0,1,5,5V25a5,5,0,0,1-5,5H5a5,5,0,0,1-5-5V5A5,5,0,0,1,5,0Z" fill="#9c5d9a"/>
  <path id="Shape" d="M15.926,14.839H1.642A1.637,1.637,0,0,1,0,13.211V1.628H.014A1.637,1.637,0,0,1,1.656,0H18V13.087H15.926v1.751ZM1.058,3.064V13.21a.577.577,0,0,0,.583.57H14.869V10.6H11.842a1.625,1.625,0,0,1-1.655-1.588V7.956a1.625,1.625,0,0,1,1.655-1.589h3.027V3.155H1.642l-.011,0-.01,0a1.8,1.8,0,0,1-.48-.075A.2.2,0,0,0,1.1,3.069.226.226,0,0,1,1.058,3.064ZM15.926,10.6v1.425h1.015V10.6ZM11.84,7.427a.566.566,0,0,0-.6.529V9.014a.566.566,0,0,0,.6.53h5.1V7.427ZM1.656,1.058a.578.578,0,0,0-.582.57c0,.323.292.467.582.467h14.27V6.367h1.015V1.058Z" transform="translate(6 8)" fill="#fff"/>
</svg>
