<svg id="Зробити" xmlns="http://www.w3.org/2000/svg" width="30" height="30" viewBox="0 0 30 30">
  <rect id="Rectangle_12_Copy_2" data-name="Rectangle 12 Copy 2" width="30" height="30" rx="5" fill="#9c5d9a"/>
  <path id="Shape" d="M14.551,5.739l-1.258,8.538a1.953,1.953,0,0,1-.62,1.139c-.2.2-.337.335-.337.988v1.066a.529.529,0,0,1-1.059,0V16.4a2.07,2.07,0,0,1,.65-1.739.9.9,0,0,0,.322-.565L13.5,5.588c.019-.13.054-.572-.289-.619a.373.373,0,0,0-.291.06.6.6,0,0,0-.2.4L12.2,8.941a.529.529,0,0,1-.826.356.394.394,0,0,1-.231-.083A.527.527,0,0,1,10.9,8.74l.3-5.6a.51.51,0,0,0-.457-.563.5.5,0,0,0-.543.455L9.71,8.1a.519.519,0,0,1-.562.478c-.086-.005-.173-.011-.26-.012a.53.53,0,0,1-.519-.52L8.247,1.565a.5.5,0,1,0-.991-.011L7.131,8.528a.53.53,0,0,1-.3.469c-.066.032-.129.064-.19.1a.523.523,0,0,1-.5.008.533.533,0,0,1-.284-.418L5.305,3.042A.5.5,0,0,0,5.13,2.7a.521.521,0,0,0-.365-.115.5.5,0,0,0-.453.54l.533,7.514A.529.529,0,0,1,3.9,11L2.259,8.934a.649.649,0,0,0-.889-.29.616.616,0,0,0-.289.377.607.607,0,0,0,.064.469l3.737,6.445a.611.611,0,0,0,.389.29.529.529,0,0,1,.4.515v.731a.529.529,0,0,1-1.059,0V17.1a1.66,1.66,0,0,1-.65-.633L.227,10.022A1.679,1.679,0,0,1,.84,7.727a1.679,1.679,0,0,1,2.291.613l.536.671L3.256,3.206a1.558,1.558,0,0,1,2.927-.863l.015-.8a1.554,1.554,0,0,1,3.109.01l.015.79a1.583,1.583,0,0,1,.374-.46,1.562,1.562,0,0,1,2.561,1.332L12.2,4.253c.028-.024.057-.048.086-.07a1.428,1.428,0,0,1,1.078-.263,1.476,1.476,0,0,1,1.188,1.818Z" transform="translate(7 5)" fill="#fff"/>
</svg>
