<svg id="Материально" xmlns="http://www.w3.org/2000/svg" width="30" height="30" viewBox="0 0 30 30">
  <path id="Rectangle_12_Copy_4" data-name="Rectangle 12 Copy 4" d="M5,0H25a5,5,0,0,1,5,5V25a5,5,0,0,1-5,5H5a5,5,0,0,1-5-5V5A5,5,0,0,1,5,0Z" fill="#9c5d9a"/>
  <g id="clothes" transform="translate(6 4)">
    <g id="Group">
      <path id="Shape" d="M6.413,12.238H3.65a.389.389,0,0,1-.389-.389V5.677l-.835.418a.391.391,0,0,1-.491-.123L.071,3.331A.391.391,0,0,1,.14,2.808L3.4.092A.386.386,0,0,1,3.65,0h8.621a.386.386,0,0,1,.25.092l3.261,2.716a.392.392,0,0,1,.068.523L13.987,5.971a.391.391,0,0,1-.318.164.385.385,0,0,1-.174-.041l-.836-.418V6.724a.388.388,0,0,1-.777,0V.777H10.416a2.485,2.485,0,0,1-4.91,0H4.038V11.462H6.413a.388.388,0,1,1,0,.777ZM12.659,1.218V4.809l.885.442,1.465-2.075Zm-9.4,0L.913,3.175,2.377,5.251l.885-.442ZM6.3.777a1.708,1.708,0,0,0,3.327,0Z" transform="translate(0.048)" fill="#fff"/>
      <path id="Shape-2" data-name="Shape" d="M8.2,14.461H5.207a.388.388,0,0,1-.388-.367L4.292,4.631l-.526,9.463a.389.389,0,0,1-.388.367H.388A.389.389,0,0,1,0,14.072V.388A.388.388,0,0,1,.388,0H8.2a.389.389,0,0,1,.389.388V14.072A.389.389,0,0,1,8.2,14.461ZM3.927,3.821h.732a.387.387,0,0,1,.387.366l.528,9.5H7.808V2.423H.777V13.684H3.011l.528-9.5A.387.387,0,0,1,3.927,3.821ZM6.583.777v.869H7.808V.777Zm-3.805,0v.869H5.807V.777Zm-2,0v.869H2V.777Z" transform="translate(7.321 7.563)" fill="#fff"/>
    </g>
  </g>
</svg>
