<svg id="Волонтерство" xmlns="http://www.w3.org/2000/svg" width="30" height="30" viewBox="0 0 30 30">
  <path id="Rectangle_12_Copy_5" data-name="Rectangle 12 Copy 5" d="M5,0H25a5,5,0,0,1,5,5V25a5,5,0,0,1-5,5H5a5,5,0,0,1-5-5V5A5,5,0,0,1,5,0Z" fill="#9c5d9a"/>
  <g id="donation" transform="translate(6 7)">
    <g id="Group">
      <path id="Shape" d="M.331.967A2.515,2.515,0,0,1,1.846,2.484a.5.5,0,1,0,.939-.332A3.471,3.471,0,0,0,.665.028.5.5,0,1,0,.331.967Z" transform="translate(12.967 2.163)" fill="#fff"/>
      <path id="Shape-2" data-name="Shape" d="M8.725,16.871a.5.5,0,0,0,.477,0c5.668-3.092,8.725-8.177,8.725-11.393A5.479,5.479,0,0,0,7.482,3.166a.5.5,0,1,0,.9.421,4.483,4.483,0,0,1,8.547,1.891c0,2.924-2.975,7.569-7.968,10.386C3.97,13.047,1,8.4,1,5.478A4.485,4.485,0,0,1,7.273,1.369a.5.5,0,1,0,.4-.912A5.48,5.48,0,0,0,0,5.478C0,8.693,3.058,13.779,8.725,16.871Z" transform="translate(0.016 0)" fill="#fff"/>
    </g>
  </g>
</svg>
