<svg id="Карта_Copy_4" data-name="Карта Copy 4" xmlns="http://www.w3.org/2000/svg" width="170" height="85" viewBox="0 0 170 85">
  <rect id="Rectangle_15" data-name="Rectangle 15" width="170" height="85" rx="10" fill="#c5d5e6"/>
  <g id="paypal-logo" transform="translate(70 20)">
    <path id="PayPal" d="M10.964,30.682H3.08l.328-1.494h6.623l1.93-9.052h5.632a11,11,0,0,0,11.1-8.969,8.357,8.357,0,0,0-.37-5.218,7.617,7.617,0,0,1,1.3,6.711,11.237,11.237,0,0,1-3.983,6.6,11.36,11.36,0,0,1-7.117,2.367H12.894l-1.93,9.052Zm-3.081-3.36H0L5.953,0H19.387a7.638,7.638,0,0,1,5.936,2.667A7.669,7.669,0,0,1,26.547,9.3a11.236,11.236,0,0,1-3.983,6.6,11.362,11.362,0,0,1-7.118,2.367H9.814L7.883,27.321ZM12.629,5.563h0L10.94,13.037h2.569L14.775,7.43h3.861a1.686,1.686,0,0,1,.364.05c.048.01.1.021.147.03A2.646,2.646,0,0,0,16.49,5.563H12.629Zm3.08,3.361-.924,4.1A4.924,4.924,0,0,0,19.145,9.3a2.146,2.146,0,0,0,.047-.258c.005-.039.011-.078.017-.118h-3.5Z" transform="translate(0.064)" fill="#fff"/>
  </g>
  <text id="PayPal-2" data-name="PayPal" transform="translate(66 72)" fill="#fff" font-size="12" font-family="Gilroy-Light, Gilroy" font-weight="300"><tspan x="0" y="0">PayPal</tspan></text>
</svg>
