<svg id="Карта" xmlns="http://www.w3.org/2000/svg" width="170" height="85" viewBox="0 0 170 85">
  <rect id="Rectangle_15" data-name="Rectangle 15" width="170" height="85" rx="10" fill="#c5d5e6"/>
  <g id="Мастеркард" transform="translate(30 20)">
    <circle id="Oval" cx="12.5" cy="12.5" r="12.5" fill="#fff" opacity="0.8"/>
    <circle id="Oval_Copy" data-name="Oval Copy" cx="12.5" cy="12.5" r="12.5" transform="translate(16)" fill="#fff" opacity="0.7"/>
  </g>
  <g id="visa-pay-logo" transform="translate(92 24)">
    <g id="Layer_1_copy_24_">
      <path id="Shape" d="M27.375,14.725a12.328,12.328,0,0,1-4.333-.76l.547-3.193.5.228a8.146,8.146,0,0,0,3.661.747c1.111,0,2.313-.436,2.325-1.393.007-.623-.5-1.069-2.016-1.769-1.474-.682-3.43-1.826-3.4-3.876C24.677,1.936,27.379,0,31.227,0A10.063,10.063,0,0,1,34.71.6l-.526,3.091-.351-.165a7.131,7.131,0,0,0-2.782-.547h-.128c-1.531,0-2.228.636-2.228,1.227-.008.67.825,1.109,2.184,1.77,2.246,1.015,3.284,2.245,3.267,3.873C34.118,12.811,31.46,14.725,27.375,14.725Zm10.581-.206H33.874L39.647,1.444A1.93,1.93,0,0,1,41.684.26h3l3.146,14.257H44.227s-.353-1.619-.474-2.137l-2.7,0h-.035l-2.239,0c-.15.382-.811,2.125-.817,2.143Zm3.486-9.049-.029.075c-.46,1.185-1.269,3.269-1.52,3.912h3.229c-.154-.706-.893-4.085-.9-4.119l-.262-1.23c-.1.259-.227.6-.331.868-.136.355-.188.49-.187.5ZM20.61,14.512H16.722L19.153.246h3.89L20.61,14.511ZM7.345,14.5h0L3.862,2.607A15.251,15.251,0,0,1,9.248,8.521L9.654,9.99,13.462.261l4.118,0L11.458,14.5Zm1.734-6.93C7.712,4.088,4.4,1.476,0,.408L.05.122H6.078c.959.036,1.5.4,1.695,1.158L9.08,7.574Z" transform="translate(0 0.554)" fill="#fff"/>
    </g>
  </g>
  <text id="Карта_Visa_MasterCar" data-name="Карта Visa/MasterCar" transform="translate(17 72)" fill="#fff" font-size="12" font-family="Gilroy-Light, Gilroy" font-weight="300"><tspan x="0" y="0">Карта Visa/MasterCard</tspan></text>
</svg>
