<svg xmlns="http://www.w3.org/2000/svg" width="21.74" height="38.968" viewBox="0 0 21.74 38.968">
  <g id="the-tube-terminal" transform="translate(-0.115)">
    <path id="Shape" d="M21.171,38.968H.569A.572.572,0,0,1,0,38.395V2.695A2.687,2.687,0,0,1,2.673,0H19.066A2.687,2.687,0,0,1,21.74,2.695v35.7A.572.572,0,0,1,21.171,38.968ZM1.138,26.8V37.821H20.6V26.8ZM2.673,1.148A1.543,1.543,0,0,0,1.138,2.695V25.65H20.6V2.695a1.543,1.543,0,0,0-1.535-1.547ZM9.29,24.322h-.3a.574.574,0,0,1,0-1.147h.3a.574.574,0,0,1,0,1.147Zm-2.438,0h-.3a.574.574,0,0,1,0-1.147h.3a.574.574,0,0,1,0,1.147Zm-2.439,0h-.3a.574.574,0,0,1,0-1.147h.3a.574.574,0,0,1,0,1.147Zm13.21-.8h-4.4a.572.572,0,0,1-.569-.573V20.086a.572.572,0,0,1,.569-.574h4.4a.573.573,0,0,1,.57.574v2.859A.572.572,0,0,1,17.623,23.519ZM13.79,20.66v1.712h3.264V20.66ZM9.29,22.49h-.3a.573.573,0,0,1,0-1.147h.3a.573.573,0,0,1,0,1.147Zm-2.438,0h-.3a.573.573,0,0,1,0-1.147h.3a.573.573,0,0,1,0,1.147Zm-2.439,0h-.3a.573.573,0,0,1,0-1.147h.3a.573.573,0,0,1,0,1.147ZM9.29,20.66h-.3a.574.574,0,0,1,0-1.147h.3a.574.574,0,0,1,0,1.147Zm-2.438,0h-.3a.574.574,0,0,1,0-1.147h.3a.574.574,0,0,1,0,1.147Zm-2.439,0h-.3a.574.574,0,0,1,0-1.147h.3a.574.574,0,0,1,0,1.147Zm13.21-2.608H4.116a.572.572,0,0,1-.569-.574V4.436a.572.572,0,0,1,.569-.574H17.623a.573.573,0,0,1,.57.574V17.477A.573.573,0,0,1,17.623,18.051ZM4.685,5.009V16.9H17.054V5.009Z" transform="translate(0.115)" fill="#fff"/>
  </g>
</svg>
