<svg xmlns="http://www.w3.org/2000/svg" width="79.821" height="21.016" viewBox="0 0 79.821 21.016">
  <g id="Capa_1_1_" transform="translate(0 -0.602)">
    <g id="Layer_1_copy_32_">
      <path id="Shape" d="M69.232,21.016A10.508,10.508,0,1,1,69.232,0a10.407,10.407,0,0,1,4.607,1.066c.209.1.422.212.651.344l-.967.866L72.074.773,69.62,2.962l-1.453-1.59L63.594,5.49l2.93,3.23L65.372,9.731l2.888,3.234-1.147,1.01,4.125,4.591,2.444-2.254,2.113,2.417a11.461,11.461,0,0,1-1.382.918A10.465,10.465,0,0,1,69.232,21.016Zm7.549-3.259h0l-1.689-1.875,1.876-1.687,1.688,1.875-1.875,1.688Zm-25.4-.5h0v-.98c.737,0,1.277-.517,1.607-1.534l-2.3-6H52l1.535,4.414h.072l1.362-4.415h1.284l-2.168,6C53.437,16.529,52.653,17.259,51.377,17.259Zm19.969-.6h0l-2.248-2.5,2.5-2.25,2.25,2.5-2.5,2.249ZM48,14.826c-1.858,0-2.84-1.087-2.84-3.143a3.517,3.517,0,0,1,.686-2.254,2.524,2.524,0,0,1,2.036-.886,2.263,2.263,0,0,1,1.669.618,3.155,3.155,0,0,1,.75,2.31v.44h-3.91a2.313,2.313,0,0,0,.446,1.569,1.726,1.726,0,0,0,1.379.507,3.656,3.656,0,0,0,1.9-.623v.907A4.2,4.2,0,0,1,48,14.826Zm-.154-5.482c-.783,0-1.3.642-1.43,1.762h2.749C49.115,10,48.622,9.344,47.848,9.344Zm-12.71,5.482c-1.712,0-2.734-1.175-2.734-3.143s1.022-3.14,2.734-3.14,2.734,1.174,2.734,3.14S36.85,14.826,35.138,14.826Zm0-5.445c-.924,0-1.475.861-1.475,2.3,0,1.484.524,2.3,1.475,2.3s1.475-.817,1.475-2.3C36.613,10.241,36.061,9.381,35.138,9.381ZM12.966,14.826c-1.859,0-2.841-1.087-2.841-3.143a3.515,3.515,0,0,1,.686-2.254,2.524,2.524,0,0,1,2.035-.886,2.219,2.219,0,0,1,1.773.729,3.3,3.3,0,0,1,.648,2.2v.44H11.36a2.315,2.315,0,0,0,.445,1.569,1.724,1.724,0,0,0,1.377.507,3.663,3.663,0,0,0,1.905-.623v.907A4.188,4.188,0,0,1,12.966,14.826Zm-.155-5.482c-.784,0-1.3.642-1.427,1.762H14.13C14.078,10,13.586,9.344,12.812,9.344Zm5.886,5.48a5.553,5.553,0,0,1-2.339-.587V5.867l1.247-.3V8.986a3.651,3.651,0,0,1,1.621-.443c1.5,0,2.29,1.018,2.29,2.945C21.515,13.639,20.515,14.824,18.7,14.824Zm.2-5.347a2.534,2.534,0,0,0-1.306.4v3.921a2.776,2.776,0,0,0,1.1.191c1.064,0,1.56-.793,1.56-2.495C20.257,10.135,19.814,9.477,18.9,9.477Zm5.016,5.2H22.838v-8.5h1.45l2.687,6.7h.06l2.563-6.7h1.487v8.5h-1.3V8.515h-.107L27.237,14.68h-.766L24.024,8.661h-.107V14.68Zm-20.679,0h-1.3L0,6.179H1.344l1.343,6.342h.085L4.33,6.179H5.4l1.668,6.342h.085L8.373,6.179h1.4l-1.944,8.5h-1.3L4.906,8.7H4.82L3.238,14.68Zm40.808,0H42.8V10.615c0-.925-.432-1.115-1.082-1.115a3.289,3.289,0,0,0-1.463.432v4.747H39.011V9.427a6.124,6.124,0,0,1,3.057-.887c1.4,0,1.977.523,1.977,1.8v4.338Zm31.089-.712h0L73.444,12.1l1.875-1.689,1.691,1.872-1.874,1.689Zm-5.567-1.625h0l-2.249-2.5,2.5-2.253,2.25,2.5-2.5,2.252Zm9-.178h0l-1.124-1.248L78.7,9.79l1.123,1.25-1.248,1.123ZM73.531,10.01h0L71.843,8.136l1.872-1.688,1.691,1.874-1.875,1.688Zm3.443-1.555h0L75.849,7.2,77.1,6.08,78.219,7.33,76.975,8.454Zm-9.2-.38h0l-2.248-2.5,2.5-2.25,2.249,2.5-2.5,2.248ZM71.8,6.241h0L70.115,4.367,71.99,2.678l1.688,1.876L71.8,6.241Zm3.575-1.5h0L74.253,3.491,75.5,2.366l1.123,1.25L75.378,4.741Z" transform="translate(0 0.602)" fill="#fff"/>
    </g>
  </g>
</svg>
